<svg xmlns="http://www.w3.org/2000/svg" id="Layer_1" viewBox="0 0 32 32"><path fill="#f0c9ae" d="M27.4 13.9c0 .8-.6 1.4-1.4 1.4.8 0 1.4.6 1.4 1.4s-.6 1.4-1.4 1.4h-3.5c-.8 0-1.4.6-1.4 1.4v2.7c0 1.7-1.4 3.1-3.1 3.1h-.5v-3.4c0-.6-.2-1.2-.6-1.7l-1.1-1.5c-.3-.4-.7-.6-1.1-.6h-1.4v-10H15c.5 0 1-.2 1.2-.7.2-.5.7-.8 1.3-.8h7.1c.8 0 1.4.6 1.4 1.4s-.6 1.4-1.4 1.4H26c.8 0 1.4.6 1.4 1.4s-.6 1.4-1.4 1.4c.7.2 1.4.9 1.4 1.7z"/><path fill="#607d95" d="M4.5 6.8h5.7v12.8H4.5z"/><path fill="#4b6c85" d="M9.8 8.8H4.5v-2h5.7v2z"/><path fill="#eef2fa" d="M7.5 6.8h5.7v12.8H7.5z"/><path fill="#d5e5f2" d="M11.2 19.6v-8.8c0-1.1-.9-2-2-2H7.5v-2h5.7v12.8h-2z"/><path fill="#e2b698" d="M27.4 13.9c0 .8-.6 1.4-1.4 1.4.8 0 1.4.6 1.4 1.4s-.6 1.4-1.4 1.4h-2c.8 0 1.4-.6 1.4-1.4s-.6-1.4-1.4-1.4c.8 0 1.4-.6 1.4-1.4s-.6-1.4-1.4-1.4c.8 0 1.4-.6 1.4-1.4s-.7-1.5-1.4-1.5h-1.4c.8 0 1.4-.6 1.4-1.3h-4.5c-.5 0-1 .3-1.2.7-.2.4-.7.7-1.1.7h-1.5c-.6 0-1 .4-1 1v7.5h-1.4v-10h1.9c.5 0 .9-.3 1.1-.7.2-.4.7-.7 1.2-.7h7.1c.8 0 1.4.6 1.4 1.4v.1c0 .7-.7 1.3-1.4 1.3H26c.8 0 1.4.6 1.4 1.4s-.6 1.4-1.4 1.4c.7 0 1.4.7 1.4 1.5z"/><path fill="#e2b698" d="M22.4 18.1c-.8 0-1.4.6-1.4 1.4v2.7c0 1.7-1.3 3-3 3.1v-.4c.9-.5 1.6-1.5 1.6-2.7V19.6c0-.8.6-1.4 1.4-1.4h1.4z"/><circle cx="10.3" cy="9.6" r=".7" fill="#004463"/></svg>