<svg width="40" height="40" viewBox="0 0 40 40" fill="none" xmlns="http://www.w3.org/2000/svg">
<path d="M40 18.6831C40 17.0405 39.1007 15.6217 37.7778 14.8515V4.2251C37.7778 3.61687 37.2931 2 35.5556 2C35.0611 2 34.5701 2.16544 34.1681 2.48798L28.2632 7.21694C25.2972 9.5901 21.5736 10.8976 17.7778 10.8976H4.44444C1.98958 10.8976 0 12.8892 0 15.3465V22.0197C0 24.477 1.98958 26.4685 4.44444 26.4685H6.78472C6.68819 27.197 6.63333 27.938 6.63333 28.6929C6.63333 31.4574 7.27639 34.0697 8.40833 36.4047C8.76875 37.1478 9.55556 37.5906 10.3806 37.5906H15.5389C17.3479 37.5906 18.434 35.5163 17.3375 34.076C16.1986 32.5801 15.5215 30.7143 15.5215 28.6929C15.5215 27.9206 15.634 27.1782 15.8278 26.4685H17.7778C21.5736 26.4685 25.2972 27.776 28.2625 30.1492L34.1674 34.8782C34.5612 35.1936 35.0505 35.3657 35.5549 35.3661C37.2854 35.3661 37.7771 33.7826 37.7771 33.1417V22.5153C39.1007 21.7444 40 20.3257 40 18.6831ZM33.3333 28.5136L31.0382 26.6757C27.2882 23.6727 22.5778 22.0197 17.7778 22.0197V15.3465C22.5778 15.3465 27.2882 13.6934 31.0382 10.6905L33.3333 8.85257V28.5136Z" fill="white"/>
</svg>
