<svg width="40" height="40" viewBox="0 0 40 40" fill="none" xmlns="http://www.w3.org/2000/svg">
<path d="M19.5221 20C25.0525 20 29.5348 15.5234 29.5348 10C29.5348 4.47656 25.0525 0 19.5221 0C13.9917 0 9.50948 4.47656 9.50948 10C9.50948 15.5234 13.9917 20 19.5221 20ZM26.531 22.5H25.2246C23.4881 23.2969 21.5559 23.75 19.5221 23.75C17.4883 23.75 15.564 23.2969 13.8196 22.5H12.5133C6.70907 22.5 2 27.2031 2 33V36.25C2 38.3203 3.68181 40 5.75474 40H33.2895C35.3624 40 37.0442 38.3203 37.0442 36.25V33C37.0442 27.2031 32.3352 22.5 26.531 22.5Z" fill="white"/>
</svg>
