<svg width="40" height="40" viewBox="0 0 40 40" fill="none" xmlns="http://www.w3.org/2000/svg">
<path d="M6 18.4286C8.20625 18.4286 10 16.6348 10 14.4286C10 12.2223 8.20625 10.4286 6 10.4286C3.79375 10.4286 2 12.2223 2 14.4286C2 16.6348 3.79375 18.4286 6 18.4286ZM34 18.4286C36.2062 18.4286 38 16.6348 38 14.4286C38 12.2223 36.2062 10.4286 34 10.4286C31.7938 10.4286 30 12.2223 30 14.4286C30 16.6348 31.7938 18.4286 34 18.4286ZM36 20.4286H32C30.9 20.4286 29.9062 20.8723 29.1812 21.5911C31.7 22.9723 33.4875 25.4661 33.875 28.4286H38C39.1063 28.4286 40 27.5348 40 26.4286V24.4286C40 22.2223 38.2062 20.4286 36 20.4286ZM20 20.4286C23.8687 20.4286 27 17.2973 27 13.4286C27 9.55984 23.8687 6.42859 20 6.42859C16.1313 6.42859 13 9.55984 13 13.4286C13 17.2973 16.1313 20.4286 20 20.4286ZM24.8 22.4286H24.2812C22.9813 23.0536 21.5375 23.4286 20 23.4286C18.4625 23.4286 17.025 23.0536 15.7188 22.4286H15.2C11.225 22.4286 8 25.6536 8 29.6286V31.4286C8 33.0848 9.34375 34.4286 11 34.4286H29C30.6562 34.4286 32 33.0848 32 31.4286V29.6286C32 25.6536 28.775 22.4286 24.8 22.4286ZM10.8188 21.5911C10.0938 20.8723 9.1 20.4286 8 20.4286H4C1.79375 20.4286 0 22.2223 0 24.4286V26.4286C0 27.5348 0.89375 28.4286 2 28.4286H6.11875C6.5125 25.4661 8.3 22.9723 10.8188 21.5911Z" fill="white"/>
</svg>
