<svg width="40" height="40" viewBox="0 0 40 40" fill="none" xmlns="http://www.w3.org/2000/svg">
<path d="M38.3333 7H7.77778C6.32931 7 5.09424 7.92896 4.63556 9.22222H1.66667C0.746181 9.22222 0 9.9684 0 10.8889V29.7778C0 31.9256 1.74111 33.6667 3.88889 33.6667H38.3333C39.2538 33.6667 40 32.9205 40 32V8.66667C40 7.74618 39.2538 7 38.3333 7ZM3.33333 29.7778V12.5556H4.44444V29.7778C4.44444 30.0841 4.19521 30.3333 3.88889 30.3333C3.58257 30.3333 3.33333 30.0841 3.33333 29.7778ZM36.6667 30.3333H7.73764C7.76361 30.1518 7.77778 29.9665 7.77778 29.7778V10.3333H36.6667V30.3333ZM11.9444 22H21.3889C21.8491 22 22.2222 21.6269 22.2222 21.1667V14.5C22.2222 14.0398 21.8491 13.6667 21.3889 13.6667H11.9444C11.4842 13.6667 11.1111 14.0398 11.1111 14.5V21.1667C11.1111 21.6269 11.4842 22 11.9444 22ZM13.8889 16.4444H19.4444V19.2222H13.8889V16.4444ZM11.1111 26.1667V24.5C11.1111 24.0398 11.4842 23.6667 11.9444 23.6667H21.3889C21.8491 23.6667 22.2222 24.0398 22.2222 24.5V26.1667C22.2222 26.6269 21.8491 27 21.3889 27H11.9444C11.4842 27 11.1111 26.6269 11.1111 26.1667ZM24.4444 26.1667V24.5C24.4444 24.0398 24.8176 23.6667 25.2778 23.6667H32.5C32.9602 23.6667 33.3333 24.0398 33.3333 24.5V26.1667C33.3333 26.6269 32.9602 27 32.5 27H25.2778C24.8176 27 24.4444 26.6269 24.4444 26.1667ZM24.4444 16.1667V14.5C24.4444 14.0398 24.8176 13.6667 25.2778 13.6667H32.5C32.9602 13.6667 33.3333 14.0398 33.3333 14.5V16.1667C33.3333 16.6269 32.9602 17 32.5 17H25.2778C24.8176 17 24.4444 16.6269 24.4444 16.1667ZM24.4444 21.1667V19.5C24.4444 19.0398 24.8176 18.6667 25.2778 18.6667H32.5C32.9602 18.6667 33.3333 19.0398 33.3333 19.5V21.1667C33.3333 21.6269 32.9602 22 32.5 22H25.2778C24.8176 22 24.4444 21.6269 24.4444 21.1667Z" fill="white"/>
</svg>
