<svg width="40" height="40" viewBox="0 0 40 40" fill="none" xmlns="http://www.w3.org/2000/svg">
<path d="M20.375 0.625C9.67523 0.625 1 9.30336 1 20C1 30.7029 9.67523 39.375 20.375 39.375C31.0748 39.375 39.75 30.7029 39.75 20C39.75 9.30336 31.0748 0.625 20.375 0.625ZM20.375 9.21875C22.1872 9.21875 23.6562 10.6878 23.6562 12.5C23.6562 14.3122 22.1872 15.7812 20.375 15.7812C18.5628 15.7812 17.0938 14.3122 17.0938 12.5C17.0938 10.6878 18.5628 9.21875 20.375 9.21875ZM24.75 29.0625C24.75 29.5802 24.3302 30 23.8125 30H16.9375C16.4198 30 16 29.5802 16 29.0625V27.1875C16 26.6698 16.4198 26.25 16.9375 26.25H17.875V21.25H16.9375C16.4198 21.25 16 20.8302 16 20.3125V18.4375C16 17.9198 16.4198 17.5 16.9375 17.5H21.9375C22.4552 17.5 22.875 17.9198 22.875 18.4375V26.25H23.8125C24.3302 26.25 24.75 26.6698 24.75 27.1875V29.0625Z" fill="white"/>
</svg>
