<svg width="40" height="40" viewBox="0 0 40 40" fill="none" xmlns="http://www.w3.org/2000/svg">
<path d="M37 28.125V1.875C37 0.835938 36.1641 0 35.125 0H9.5C5.35938 0 2 3.35938 2 7.5V32.5C2 36.6406 5.35938 40 9.5 40H35.125C36.1641 40 37 39.1641 37 38.125V36.875C37 36.2891 36.7266 35.7578 36.3047 35.4141C35.9766 34.2109 35.9766 30.7812 36.3047 29.5781C36.7266 29.2422 37 28.7109 37 28.125ZM12 10.4688C12 10.2109 12.2109 10 12.4688 10H29.0312C29.2891 10 29.5 10.2109 29.5 10.4688V12.0312C29.5 12.2891 29.2891 12.5 29.0312 12.5H12.4688C12.2109 12.5 12 12.2891 12 12.0312V10.4688ZM12 15.4688C12 15.2109 12.2109 15 12.4688 15H29.0312C29.2891 15 29.5 15.2109 29.5 15.4688V17.0312C29.5 17.2891 29.2891 17.5 29.0312 17.5H12.4688C12.2109 17.5 12 17.2891 12 17.0312V15.4688ZM31.7969 35H9.5C8.11719 35 7 33.8828 7 32.5C7 31.125 8.125 30 9.5 30H31.7969C31.6484 31.3359 31.6484 33.6641 31.7969 35Z" fill="white"/>
</svg>
