<svg width="100" height="100" viewBox="0 0 100 100" fill="none" xmlns="http://www.w3.org/2000/svg">
<g clip-path="url(#clip0)">
<path d="M66.5156 49.9999C63.875 49.9999 61.3906 48.5937 60.0469 46.3437L50 29.6874L39.9688 46.3437C38.6094 48.6093 36.125 50.0155 33.4844 50.0155C32.7813 50.0155 32.0781 49.9218 31.4063 49.7187L10 43.5937V71.4062C10 73.703 11.5625 75.703 13.7813 76.2499L47.5625 84.703C49.1563 85.0937 50.8281 85.0937 52.4063 84.703L86.2188 76.2499C88.4375 75.6874 90 73.6874 90 71.4062V43.5937L68.5938 49.703C67.9219 49.9062 67.2188 49.9999 66.5156 49.9999ZM99.7344 32.4687L91.6875 16.4062C91.2031 15.4374 90.1563 14.8749 89.0781 15.0155L50 19.9999L64.3281 43.7655C64.9219 44.7499 66.1094 45.2187 67.2188 44.9062L98.1406 36.078C99.6875 35.6249 100.438 33.9062 99.7344 32.4687V32.4687ZM8.31252 16.4062L0.265647 32.4687C-0.453103 33.9062 0.312522 35.6249 1.84377 36.0624L32.7656 44.8905C33.875 45.203 35.0625 44.7343 35.6563 43.7499L50 19.9999L10.9063 15.0155C9.82815 14.8905 8.7969 15.4374 8.31252 16.4062V16.4062Z" fill="white"/>
</g>
<defs>
<clipPath id="clip0">
<rect y="10" width="100" height="80" fill="white"/>
</clipPath>
</defs>
</svg>
