<svg width="40" height="40" viewBox="0 0 40 40" fill="none" xmlns="http://www.w3.org/2000/svg">
<g clip-path="url(#clip0)">
<path d="M19.4712 12.3559L6.6677 22.901V34.2823C6.6677 34.577 6.78476 34.8596 6.99313 35.068C7.20151 35.2764 7.48412 35.3934 7.77881 35.3934L15.5607 35.3733C15.8545 35.3718 16.1357 35.2541 16.3428 35.0459C16.55 34.8377 16.6663 34.5559 16.6663 34.2622V27.6156C16.6663 27.3209 16.7834 27.0383 16.9917 26.83C17.2001 26.6216 17.4827 26.5045 17.7774 26.5045H22.2219C22.5165 26.5045 22.7992 26.6216 23.0075 26.83C23.2159 27.0383 23.333 27.3209 23.333 27.6156V34.2573C23.3325 34.4035 23.3609 34.5484 23.4165 34.6836C23.4722 34.8188 23.554 34.9417 23.6572 35.0452C23.7604 35.1488 23.883 35.2309 24.0181 35.287C24.1531 35.343 24.2979 35.3719 24.4441 35.3719L32.2232 35.3934C32.5179 35.3934 32.8005 35.2764 33.0089 35.068C33.2173 34.8596 33.3344 34.577 33.3344 34.2823V22.8934L20.5337 12.3559C20.3832 12.2346 20.1957 12.1685 20.0024 12.1685C19.8091 12.1685 19.6217 12.2346 19.4712 12.3559ZM39.6955 19.5233L33.8899 14.7379V5.1191C33.8899 4.89809 33.8021 4.68612 33.6458 4.52984C33.4895 4.37356 33.2776 4.28577 33.0566 4.28577H29.1677C28.9467 4.28577 28.7347 4.37356 28.5784 4.52984C28.4221 4.68612 28.3344 4.89809 28.3344 5.1191V10.1615L22.117 5.04618C21.5203 4.5552 20.7716 4.28675 19.9989 4.28675C19.2262 4.28675 18.4775 4.5552 17.8809 5.04618L0.302422 19.5233C0.218038 19.593 0.148224 19.6787 0.0969686 19.7754C0.0457131 19.8722 0.0140207 19.9781 0.0037022 20.0871C-0.00661627 20.196 0.00464144 20.306 0.0368321 20.4106C0.0690227 20.5153 0.121515 20.6125 0.191311 20.6969L1.96214 22.8497C2.03175 22.9343 2.11736 23.0044 2.21409 23.0559C2.31081 23.1074 2.41674 23.1393 2.52582 23.1498C2.63489 23.1603 2.74497 23.1492 2.84975 23.1172C2.95453 23.0851 3.05196 23.0326 3.13645 22.9629L19.4712 9.50869C19.6217 9.38738 19.8091 9.32123 20.0024 9.32123C20.1957 9.32123 20.3832 9.38738 20.5337 9.50869L36.8691 22.9629C36.9534 23.0327 37.0507 23.0851 37.1553 23.1173C37.26 23.1495 37.3699 23.1608 37.4789 23.1505C37.5879 23.1401 37.6938 23.1085 37.7905 23.0572C37.8872 23.0059 37.9729 22.9361 38.0427 22.8517L39.8135 20.699C39.8832 20.6141 39.9355 20.5164 39.9673 20.4113C39.9991 20.3062 40.0099 20.1958 39.9989 20.0866C39.9879 19.9773 39.9555 19.8713 39.9034 19.7746C39.8513 19.678 39.7807 19.5925 39.6955 19.5233Z" fill="white"/>
</g>
<defs>
<clipPath id="clip0">
<rect width="40" height="40" fill="white"/>
</clipPath>
</defs>
</svg>
