<?xml version="1.0" standalone="no"?>
<!DOCTYPE svg PUBLIC "-//W3C//DTD SVG 20010904//EN"
 "http://www.w3.org/TR/2001/REC-SVG-20010904/DTD/svg10.dtd">
<svg version="1.0" xmlns="http://www.w3.org/2000/svg"
 width="372.000000pt" height="372.000000pt" viewBox="0 0 372.000000 372.000000"
 preserveAspectRatio="xMidYMid meet">

<g transform="translate(0.000000,372.000000) scale(0.100000,-0.100000)"
fill="#000000" stroke="none">
<path d="M553 3706 c-105 -33 -185 -106 -225 -205 l-23 -56 -3 -1235 c-2 -770
1 -1259 7 -1298 13 -82 44 -146 99 -200 65 -65 135 -93 252 -101 l97 -6 -103
-250 c-57 -137 -104 -257 -105 -265 -5 -56 29 -94 76 -87 17 3 300 139 630
304 l600 298 650 5 650 5 57 27 c109 51 180 147 199 270 6 39 9 528 7 1298
l-3 1235 -23 56 c-32 80 -90 142 -170 181 l-67 33 -1280 2 c-1039 1 -1288 -1
-1322 -11z m2625 -169 c23 -15 52 -46 64 -70 l23 -42 0 -1260 0 -1260 -24 -42
c-27 -46 -60 -74 -110 -91 -25 -9 -208 -12 -663 -12 l-629 0 -529 -262 c-292
-144 -532 -259 -535 -257 -2 3 34 97 81 210 47 112 86 219 87 238 1 24 -5 39
-22 52 -20 17 -41 19 -161 19 -183 0 -232 18 -281 103 l-24 42 0 1260 0 1260
22 42 c22 41 60 74 104 92 15 6 510 9 1290 8 l1265 -2 42 -28z" fill="white"/>
<path d="M1765 3299 c-153 -23 -271 -84 -386 -199 -73 -72 -93 -99 -132 -180
-52 -108 -70 -182 -71 -290 0 -65 3 -82 29 -129 95 -173 330 -176 435 -6 13
21 26 65 31 106 5 40 19 89 31 112 72 129 270 116 330 -21 17 -37 20 -59 15
-116 -8 -89 -21 -107 -128 -173 -196 -120 -301 -309 -303 -548 -1 -74 3 -97
20 -130 50 -92 125 -139 224 -139 142 0 235 90 250 242 5 42 13 88 20 102 6
15 41 42 83 65 97 55 202 161 250 252 56 107 78 205 80 348 1 142 -14 211 -75
335 -58 120 -178 240 -298 298 -47 23 -110 48 -141 56 -77 19 -193 26 -264 15z
m255 -169 c161 -47 301 -188 352 -355 16 -52 22 -96 22 -170 0 -234 -81 -377
-276 -492 -73 -43 -86 -55 -111 -104 -16 -31 -33 -89 -41 -134 -16 -99 -27
-120 -70 -135 -45 -15 -81 -4 -112 33 -25 30 -26 36 -20 104 8 90 29 161 68
236 37 69 91 120 184 175 115 68 154 120 175 237 29 168 -36 316 -173 390 -74
41 -196 47 -281 15 -117 -44 -194 -152 -212 -294 -13 -109 -95 -152 -167 -87
-32 28 -33 32 -31 97 4 136 67 270 169 365 144 134 328 175 524 119z" fill="white"/>
<path d="M1787 1486 c-104 -37 -175 -133 -177 -237 -2 -178 192 -301 355 -225
206 96 186 396 -31 462 -58 17 -98 17 -147 0z m122 -150 c87 -45 54 -186 -44
-186 -47 0 -71 14 -91 52 -44 86 48 178 135 134z" fill="white"/>
</g>
</svg>
