<svg width="35" height="40" viewBox="0 0 35 40" fill="none" xmlns="http://www.w3.org/2000/svg">
<g clip-path="url(#clip0)">
<path d="M17.5078 11.0156C12.539 11.0156 8.53125 15.0234 8.53125 19.9922C8.53125 24.9609 12.539 28.9687 17.5078 28.9687C22.4765 28.9687 26.4843 24.9609 26.4843 19.9922C26.4843 15.0234 22.4765 11.0156 17.5078 11.0156ZM17.5078 25.8281C14.2969 25.8281 11.6719 23.2109 11.6719 19.9922C11.6719 16.7734 14.289 14.1562 17.5078 14.1562C20.7265 14.1562 23.3437 16.7734 23.3437 19.9922C23.3437 23.2109 20.7187 25.8281 17.5078 25.8281ZM28.9453 10.6484C28.9453 11.8125 28.0078 12.7422 26.8515 12.7422C25.6875 12.7422 24.7578 11.8047 24.7578 10.6484C24.7578 9.49219 25.6953 8.55469 26.8515 8.55469C28.0078 8.55469 28.9453 9.49219 28.9453 10.6484ZM34.8906 12.7734C34.7578 9.96875 34.1171 7.48437 32.0624 5.4375C30.0156 3.39062 27.5312 2.75 24.7265 2.60937C21.8359 2.44531 13.1719 2.44531 10.2812 2.60937C7.48437 2.74219 5 3.38281 2.94532 5.42969C0.890638 7.47656 0.257827 9.96094 0.117202 12.7656C-0.0468596 15.6562 -0.0468596 24.3203 0.117202 27.2109C0.250015 30.0156 0.890638 32.5 2.94532 34.5469C5 36.5937 7.47656 37.2344 10.2812 37.375C13.1719 37.5391 21.8359 37.5391 24.7265 37.375C27.5312 37.2422 30.0156 36.6016 32.0624 34.5469C34.1093 32.5 34.7499 30.0156 34.8906 27.2109C35.0546 24.3203 35.0546 15.6641 34.8906 12.7734ZM31.1562 30.3125C30.5468 31.8437 29.3671 33.0234 27.8281 33.6406C25.5234 34.5547 20.0547 34.3437 17.5078 34.3437C14.9609 34.3437 9.48437 34.5469 7.1875 33.6406C5.65625 33.0312 4.47657 31.8516 3.85938 30.3125C2.94532 28.0078 3.15626 22.5391 3.15626 19.9922C3.15626 17.4453 2.95313 11.9687 3.85938 9.67187C4.46876 8.14062 5.64844 6.96094 7.1875 6.34375C9.49218 5.42969 14.9609 5.64062 17.5078 5.64062C20.0547 5.64062 25.5312 5.4375 27.8281 6.34375C29.3593 6.95312 30.539 8.13281 31.1562 9.67187C32.0703 11.9766 31.8593 17.4453 31.8593 19.9922C31.8593 22.5391 32.0703 28.0156 31.1562 30.3125Z" fill="white"/>
</g>
<defs>
<clipPath id="clip0">
<rect width="35" height="40" fill="white"/>
</clipPath>
</defs>
</svg>
