<svg width="35" height="40" viewBox="0 0 35 40" fill="none" xmlns="http://www.w3.org/2000/svg">
<g clip-path="url(#clip0)">
<path d="M21.2578 15.9531V21.5078C21.2578 21.6485 21.1484 21.7578 21.0078 21.7578H20.1172C20.0313 21.7578 19.9531 21.711 19.9141 21.6563L17.3672 18.2188V21.5156C17.3672 21.6563 17.2578 21.7656 17.1172 21.7656H16.2266C16.0859 21.7656 15.9766 21.6563 15.9766 21.5156V15.961C15.9766 15.8203 16.0859 15.711 16.2266 15.711H17.1094C17.1875 15.711 17.2734 15.75 17.3125 15.8203L19.8594 19.2578V15.961C19.8594 15.8203 19.9688 15.711 20.1094 15.711H21C21.1406 15.7031 21.2578 15.8203 21.2578 15.9531ZM14.8516 15.7031H13.9609C13.8203 15.7031 13.7109 15.8125 13.7109 15.9531V21.5078C13.7109 21.6485 13.8203 21.7578 13.9609 21.7578H14.8516C14.9922 21.7578 15.1016 21.6485 15.1016 21.5078V15.9531C15.1016 15.8203 14.9922 15.7031 14.8516 15.7031ZM12.7031 20.3594H10.2734V15.9531C10.2734 15.8125 10.1641 15.7031 10.0234 15.7031H9.13281C8.99219 15.7031 8.88281 15.8125 8.88281 15.9531V21.5078C8.88281 21.5781 8.90625 21.6328 8.95312 21.6797C9 21.7188 9.05469 21.75 9.125 21.75H12.6953C12.8359 21.75 12.9453 21.6406 12.9453 21.5V20.6094C12.9453 20.4766 12.8359 20.3594 12.7031 20.3594ZM25.9453 15.7031H22.375C22.2422 15.7031 22.125 15.8125 22.125 15.9531V21.5078C22.125 21.6406 22.2344 21.7578 22.375 21.7578H25.9453C26.0859 21.7578 26.1953 21.6485 26.1953 21.5078V20.6172C26.1953 20.4766 26.0859 20.3672 25.9453 20.3672H23.5156V19.4297H25.9453C26.0859 19.4297 26.1953 19.3203 26.1953 19.1797V18.2813C26.1953 18.1406 26.0859 18.0313 25.9453 18.0313H23.5156V17.0938H25.9453C26.0859 17.0938 26.1953 16.9844 26.1953 16.8438V15.9531C26.1875 15.8203 26.0781 15.7031 25.9453 15.7031ZM35 8.88283V31.1719C34.9922 34.6719 32.125 37.5078 28.6172 37.5H6.32812C2.82812 37.4922 -0.00781929 34.6172 -6.78534e-06 31.1172V8.82814C0.00780572 5.32814 2.88281 2.4922 6.38281 2.50002H28.6719C32.1719 2.50783 35.0078 5.37502 35 8.88283ZM30.1875 18.461C30.1875 12.7578 24.4688 8.1172 17.4453 8.1172C10.4219 8.1172 4.70312 12.7578 4.70312 18.461C4.70312 23.5703 9.23437 27.8516 15.3594 28.6641C16.8516 28.9844 16.6797 29.5313 16.3438 31.5391C16.2891 31.8594 16.0859 32.7969 17.4453 32.2266C18.8047 31.6563 24.7813 27.9063 27.4609 24.8281C29.3047 22.7969 30.1875 20.7422 30.1875 18.461Z" fill="white"/>
</g>
<defs>
<clipPath id="clip0">
<rect width="35" height="40" fill="white"/>
</clipPath>
</defs>
</svg>
